<svg width="24" height="24" viewBox="0 0 24 24" fill="none" xmlns="http://www.w3.org/2000/svg">
<g clip-path="url(#clip0_8_13)">
<path d="M20.5584 10.3579L6.6302 2.2335C6.32524 2.05416 5.97816 1.95892 5.62437 1.9575C5.27059 1.95609 4.92276 2.04854 4.61637 2.22544C4.30998 2.40233 4.05599 2.65733 3.88033 2.96443C3.70466 3.27152 3.6136 3.61972 3.61643 3.9735L3.68823 20.0979C3.68821 20.4505 3.78142 20.7968 3.9584 21.1018C4.13537 21.4068 4.38984 21.6595 4.69599 21.8345C5.00214 22.0094 5.3491 22.1003 5.7017 22.0979C6.0543 22.0955 6.4 22 6.70377 21.8209L20.5602 13.8209C20.8639 13.6452 21.116 13.3926 21.2912 13.0886C21.4664 12.7846 21.5586 12.4398 21.5584 12.0889C21.5582 11.738 21.4657 11.3933 21.2902 11.0895C21.1147 10.7856 20.8623 10.5333 20.5584 10.3579Z" stroke="black" stroke-width="2" stroke-linecap="round" stroke-linejoin="round"/>
</g>
<defs>
<clipPath id="clip0_8_13">
<rect width="24" height="24" fill="white"/>
</clipPath>
</defs>
</svg>
